<svg width="74" height="73" viewBox="0 0 74 73" fill="none" xmlns="http://www.w3.org/2000/svg">
<path d="M0.995117 69.4351C0.995117 71.0306 2.2842 72.3197 3.87977 72.3197H70.2268C71.8224 72.3197 73.1115 71.0306 73.1115 69.4351V31.574H0.995117V69.4351ZM70.2268 6.69384H55.0824V0.924533C55.0824 0.527893 54.7579 0.203369 54.3612 0.203369H49.3131C48.9164 0.203369 48.5919 0.527893 48.5919 0.924533V6.69384H25.5147V0.924533C25.5147 0.527893 25.1902 0.203369 24.7935 0.203369H19.7454C19.3487 0.203369 19.0242 0.527893 19.0242 0.924533V6.69384H3.87977C2.2842 6.69384 0.995117 7.98292 0.995117 9.5785V25.4441H73.1115V9.5785C73.1115 7.98292 71.8224 6.69384 70.2268 6.69384Z" fill="white"/>
</svg>
