<svg width="85" height="85" viewBox="0 0 85 85" fill="none" xmlns="http://www.w3.org/2000/svg">
<path d="M21.2368 24.255C19.159 24.255 17.1279 23.6389 15.4003 22.4845C13.6727 21.3302 12.3262 19.6895 11.5311 17.7699C10.736 15.8503 10.528 13.738 10.9333 11.7002C11.3387 9.66238 12.3392 7.79052 13.8084 6.32132C15.2776 4.85213 17.1494 3.8516 19.1873 3.44625C21.2251 3.0409 23.3374 3.24894 25.257 4.04406C27.1766 4.83918 28.8173 6.18567 29.9716 7.91326C31.1259 9.64085 31.7421 11.6719 31.7421 13.7497C31.7421 16.5359 30.6353 19.2079 28.6651 21.1781C26.695 23.1482 24.0229 24.255 21.2368 24.255ZM21.2368 8.49704C20.1979 8.49704 19.1823 8.80511 18.3185 9.38228C17.4547 9.95944 16.7815 10.7798 16.3839 11.7396C15.9864 12.6994 15.8824 13.7555 16.085 14.7744C16.2877 15.7934 16.788 16.7293 17.5226 17.4639C18.2572 18.1985 19.1931 18.6987 20.212 18.9014C21.2309 19.1041 22.2871 19.0001 23.2469 18.6025C24.2067 18.205 25.027 17.5317 25.6042 16.6679C26.1813 15.8041 26.4894 14.7886 26.4894 13.7497C26.4894 12.3566 25.936 11.0206 24.9509 10.0355C23.9659 9.05045 22.6298 8.49704 21.2368 8.49704Z" fill="white"/>
<path d="M63.2582 24.255C61.1805 24.255 59.1494 23.6389 57.4218 22.4845C55.6942 21.3302 54.3477 19.6895 53.5526 17.7699C52.7575 15.8503 52.5494 13.738 52.9548 11.7002C53.3601 9.66238 54.3607 7.79052 55.8299 6.32132C57.2991 4.85213 59.1709 3.8516 61.2088 3.44625C63.2466 3.0409 65.3589 3.24894 67.2785 4.04406C69.198 4.83918 70.8388 6.18567 71.9931 7.91326C73.1474 9.64085 73.7636 11.6719 73.7636 13.7497C73.7636 16.5359 72.6567 19.2079 70.6866 21.1781C68.7165 23.1482 66.0444 24.255 63.2582 24.255ZM63.2582 8.49704C62.2194 8.49704 61.2038 8.80511 60.34 9.38228C59.4762 9.95944 58.803 10.7798 58.4054 11.7396C58.0079 12.6994 57.9038 13.7555 58.1065 14.7744C58.3092 15.7934 58.8095 16.7293 59.5441 17.4639C60.2787 18.1985 61.2146 18.6987 62.2335 18.9014C63.2524 19.1041 64.3086 19.0001 65.2684 18.6025C66.2282 18.205 67.0485 17.5317 67.6257 16.6679C68.2028 15.8041 68.5109 14.7886 68.5109 13.7497C68.5109 12.3566 67.9575 11.0206 66.9724 10.0355C65.9874 9.05045 64.6513 8.49704 63.2582 8.49704Z" fill="white"/>
<path d="M68.5104 79.4078H58.0051C56.612 79.4078 55.2759 78.8544 54.2909 77.8694C53.3058 76.8843 52.7524 75.5483 52.7524 74.1552V55.7709H58.0051V74.1552H68.5104V50.5182H73.763V34.7603C73.763 34.0637 73.4863 33.3957 72.9938 32.9032C72.5013 32.4106 71.8332 32.1339 71.1367 32.1339H54.2757L42.2471 53.1446L30.2185 32.1339H13.3575C12.661 32.1339 11.9929 32.4106 11.5004 32.9032C11.0079 33.3957 10.7312 34.0637 10.7312 34.7603V50.5182H15.9838V74.1552H26.4891V55.7709H31.7418V74.1552C31.7418 75.5483 31.1884 76.8843 30.2033 77.8694C29.2183 78.8544 27.8822 79.4078 26.4891 79.4078H15.9838C14.5907 79.4078 13.2547 78.8544 12.2696 77.8694C11.2846 76.8843 10.7312 75.5483 10.7312 74.1552V55.7709C9.33808 55.7709 8.00205 55.2175 7.01698 54.2324C6.03192 53.2474 5.47852 51.9113 5.47852 50.5182V34.7603C5.47852 32.6706 6.30862 30.6666 7.78622 29.189C9.26381 27.7114 11.2679 26.8813 13.3575 26.8813H33.2651L42.2471 42.6392L51.2291 26.8813H71.1367C73.2263 26.8813 75.2304 27.7114 76.708 29.189C78.1856 30.6666 79.0157 32.6706 79.0157 34.7603V50.5182C79.0157 51.9113 78.4623 53.2474 77.4772 54.2324C76.4921 55.2175 75.1561 55.7709 73.763 55.7709V74.1552C73.763 75.5483 73.2096 76.8843 72.2245 77.8694C71.2395 78.8544 69.9035 79.4078 68.5104 79.4078Z" fill="white"/>
</svg>
