<svg width="75" height="73" viewBox="0 0 75 73" fill="none" xmlns="http://www.w3.org/2000/svg">
<path d="M69.7874 62.9176V67.6052C69.7874 68.8179 69.3273 69.8673 68.407 70.7535C67.4867 71.6397 66.3848 72.0828 65.1012 72.0828C63.8176 72.0828 62.7278 71.6397 61.8317 70.7535C60.9357 69.8673 60.4876 68.8179 60.4876 67.6052V63.1275H13.9887V67.6052C13.9887 68.8179 13.5407 69.8673 12.6446 70.7535C11.7486 71.6397 10.6466 72.0828 9.33884 72.0828C8.03106 72.0828 6.92913 71.6397 6.03306 70.7535C5.13699 69.8673 4.68895 68.8179 4.68895 67.6052V62.9176C3.04212 62.6844 1.85543 62.0547 1.12888 61.0286C0.402335 60.0024 0.0390625 58.4632 0.0390625 56.411V11.6342C0.0390625 10.9813 0.269135 10.4449 0.729281 10.0251C1.18943 9.6053 1.73433 9.39541 2.36401 9.39541C2.99368 9.39541 3.53859 9.6053 3.99873 10.0251C4.45888 10.4449 4.68895 10.9813 4.68895 11.6342V35.0021C6.23892 32.8099 7.78888 31.0375 9.33884 29.6849V4.91774C9.33884 3.65839 9.79899 2.59728 10.7193 1.73439C11.6396 0.871506 12.7294 0.440063 13.9887 0.440063H60.4876C61.747 0.440063 62.8368 0.871506 63.7571 1.73439C64.6774 2.59728 65.1375 3.65839 65.1375 4.91774V29.6849C66.6875 31.0375 68.2374 32.8099 69.7874 35.0021V11.6342C69.7874 10.9813 70.0175 10.4449 70.4776 10.0251C70.9378 9.6053 71.4827 9.39541 72.1124 9.39541C72.742 9.39541 73.2869 9.6053 73.7471 10.0251C74.2072 10.4449 74.4373 10.9813 74.4373 11.6342V56.411C74.4373 58.4632 74.074 60.0024 73.3475 61.0286C72.6209 62.0547 71.4342 62.6844 69.7874 62.9176ZM23.2885 49.6945C23.2885 50.9072 23.7365 51.9566 24.6326 52.8428C25.5287 53.729 26.6306 54.1721 27.9384 54.1721H46.538C47.7973 54.1721 48.8871 53.729 49.8074 52.8428C50.7277 51.9566 51.1879 50.9072 51.1879 49.6945V40.7391C51.1879 39.4798 50.7277 38.4187 49.8074 37.5558C48.8871 36.6929 47.7973 36.2614 46.538 36.2614H27.9384C26.6306 36.2614 25.5287 36.6929 24.6326 37.5558C23.7365 38.4187 23.2885 39.4798 23.2885 40.7391V49.6945ZM13.9524 45.2168C12.6688 45.2168 11.579 45.6482 10.683 46.5111C9.78688 47.374 9.33884 48.4235 9.33884 49.6595C9.33884 50.8955 9.78688 51.9566 10.683 52.8428C11.579 53.729 12.6688 54.1721 13.9524 54.1721C15.236 54.1721 16.3379 53.729 17.2582 52.8428C18.1785 51.9566 18.6386 50.8955 18.6386 49.6595C18.6386 48.4235 18.1785 47.374 17.2582 46.5111C16.3379 45.6482 15.236 45.2168 13.9524 45.2168ZM55.8377 13.8731C55.8377 12.6137 55.3776 11.5526 54.4573 10.6897C53.537 9.82685 52.4472 9.39541 51.1879 9.39541H23.2885C21.9807 9.39541 20.8788 9.82685 19.9827 10.6897C19.0867 11.5526 18.6386 12.6137 18.6386 13.8731V22.8284C18.6386 24.0411 19.0867 25.0906 19.9827 25.9768C20.8788 26.863 21.9807 27.3061 23.2885 27.3061H51.1879C52.4472 27.3061 53.537 26.863 54.4573 25.9768C55.3776 25.0906 55.8377 24.0411 55.8377 22.8284V13.8731ZM60.4513 45.2168C59.1677 45.2168 58.0779 45.6482 57.1819 46.5111C56.2858 47.374 55.8377 48.4235 55.8377 49.6595C55.8377 50.8955 56.2858 51.9566 57.1819 52.8428C58.0779 53.729 59.1677 54.1721 60.4513 54.1721C61.7349 54.1721 62.8368 53.729 63.7571 52.8428C64.6774 51.9566 65.1375 50.8955 65.1375 49.6595C65.1375 48.4235 64.6774 47.374 63.7571 46.5111C62.8368 45.6482 61.7349 45.2168 60.4513 45.2168Z" fill="white"/>
</svg>
